<?xml version="1.0" encoding="utf-8"?>
<!-- Generator: Adobe Illustrator 19.2.1, SVG Export Plug-In . SVG Version: 6.00 Build 0)  -->
<svg version="1.1" id="Layer_1" xmlns="http://www.w3.org/2000/svg" xmlns:xlink="http://www.w3.org/1999/xlink" x="0px" y="0px"
	 viewBox="0 0 1000 1000" style="enable-background:new 0 0 1000 1000;" xml:space="preserve">
<style type="text/css">
	.st0{fill:#6690BA;stroke:#FFFFFF;stroke-width:7;stroke-miterlimit:10;}
	.st1{fill:#8C5F62;stroke:#FFFFFF;stroke-width:7;stroke-miterlimit:10;}
	.st2{fill:none;stroke:#FFFFFF;stroke-width:7;stroke-miterlimit:10;}
</style>
<polygon class="st0" points="950,725 500,950 50,725 50,275 500,50 950,275 "/>
<path class="st1" d="M789.2,582.9l2,0c10.9,8.1,18.2,21.9,18.2,40.6c0,43.5-34.8,96.4-78.3,118.1c-43.5,21.7-78.5,4.1-78.5-39.4
	c0-18.7,6.6-39.1,17.5-58.1l-3.5,0L500,725.9V950l450-225V500.9L789.2,582.9z"/>
<path class="st1" d="M231.4,583.6c-10.9-18.8-17.5-39.1-17.5-57.7c0-43.2,35.3-60.6,78.9-39.1c43.5,21.6,78.9,74.1,78.9,117.2
	c0,18.6-6.5,32.3-17.5,40.3l-9.2,0l155,81.3V950L50,726.7V502.4l172.8,81.3L231.4,583.6z"/>
<polyline class="st2" points="950,275 500,500 50,275 500,500 500,950 "/>
</svg>
