<?xml version="1.0" encoding="utf-8"?>
<!-- Generator: Adobe Illustrator 19.2.1, SVG Export Plug-In . SVG Version: 6.00 Build 0)  -->
<svg version="1.1" id="Layer_1" xmlns="http://www.w3.org/2000/svg" xmlns:xlink="http://www.w3.org/1999/xlink" x="0px" y="0px"
	 viewBox="0 0 1400 500" style="enable-background:new 0 0 1400 500;" xml:space="preserve">
<style type="text/css">
	.st0{fill:#6690BA;stroke:#FFFFFF;stroke-width:7;stroke-miterlimit:10;}
	.st1{fill:#8C5F62;stroke:#FFFFFF;stroke-width:7;stroke-miterlimit:10;}
	.st2{fill:none;stroke:#FFFFFF;stroke-width:7;stroke-miterlimit:10;}
</style>
<g>
	<g>
		<path d="M526.6,312.1c-1.3-1.4-2-3.2-2-5.5v-113c0-2.2,0.7-3.9,2.1-5.2c1.4-1.3,3.2-2,5.5-2h42.7c13.3,0,23.7,3.2,31,9.7
			s11.1,15.7,11.1,27.5c0,11.9-3.7,21.1-11.2,27.7c-7.4,6.6-17.8,9.9-31,9.9h-35.5v45.4c0,2.3-0.7,4.1-2,5.5
			c-1.3,1.4-3.1,2.1-5.4,2.1C529.7,314.2,527.9,313.5,526.6,312.1z M573.4,249c19.3,0,29-8.5,29-25.4c0-16.7-9.7-25-29-25h-34V249
			H573.4z"/>
		<path d="M709.4,225.8c1.3,1.3,1.9,3.1,1.9,5.2v76.1c0,2-0.6,3.7-1.9,5c-1.3,1.3-3,2-5.3,2c-2.2,0-3.9-0.6-5.1-1.9
			c-1.3-1.3-1.9-2.9-1.9-4.9v-9c-2.8,5.3-6.6,9.3-11.6,12.1c-5,2.8-10.6,4.1-16.8,4.1c-10.4,0-18.3-2.9-23.6-8.7
			c-5.3-5.8-7.9-14.4-7.9-25.8v-49c0-2.2,0.7-3.9,2-5.2c1.3-1.3,3.1-2,5.4-2c2.3,0,4.1,0.7,5.3,2c1.3,1.3,1.9,3.1,1.9,5.2v48.6
			c0,7.8,1.6,13.5,4.7,17.2c3.1,3.7,8,5.5,14.8,5.5c7.7,0,13.9-2.5,18.5-7.5c4.7-5,7-11.5,7-19.7V231c0-2.2,0.7-3.9,2-5.2
			c1.3-1.3,3.1-2,5.4-2C706.3,223.8,708.1,224.5,709.4,225.8z"/>
		<path d="M807.5,303.3c1.1,1,1.6,2.4,1.6,4.2c0,1.8-0.5,3.2-1.6,4.2c-1.1,1-2.6,1.5-4.7,1.5h-63c-2,0-3.7-0.6-5-1.9
			c-1.3-1.3-2-2.8-2-4.6c0-1.9,0.7-3.8,2.2-5.6l53.3-64.1H739c-2,0-3.6-0.5-4.8-1.5c-1.1-1-1.7-2.4-1.7-4.1c0-1.8,0.6-3.2,1.7-4.3
			c1.1-1.1,2.7-1.6,4.8-1.6h61c2.2,0,3.9,0.6,5.2,1.9c1.3,1.3,2,2.8,2,4.6c0,1.9-0.7,3.8-2.2,5.6l-53.5,64.1h51.3
			C804.9,301.8,806.5,302.3,807.5,303.3z"/>
		<path d="M898.1,303.3c1.1,1,1.6,2.4,1.6,4.2c0,1.8-0.5,3.2-1.6,4.2c-1.1,1-2.6,1.5-4.7,1.5h-63c-2,0-3.7-0.6-5-1.9
			c-1.3-1.3-2-2.8-2-4.6c0-1.9,0.7-3.8,2.2-5.6l53.3-64.1h-49.3c-2,0-3.6-0.5-4.8-1.5c-1.1-1-1.7-2.4-1.7-4.1c0-1.8,0.6-3.2,1.7-4.3
			c1.1-1.1,2.7-1.6,4.8-1.6h61c2.2,0,3.9,0.6,5.2,1.9c1.3,1.3,2,2.8,2,4.6c0,1.9-0.7,3.8-2.2,5.6l-53.5,64.1h51.3
			C895.4,301.8,897,302.3,898.1,303.3z"/>
		<path d="M921.6,312.3c-1.4-1.3-2.1-3-2.1-5.3V192.7c0-2.3,0.7-4,2.1-5.3c1.4-1.3,3.1-1.9,5.3-1.9c2,0,3.7,0.6,5.1,1.9
			c1.4,1.3,2.1,3,2.1,5.3V307c0,2.3-0.7,4-2.1,5.3c-1.4,1.3-3.1,1.9-5.1,1.9C924.7,314.2,922.9,313.5,921.6,312.3z"/>
		<path d="M1032.5,294.5c1,1.1,1.4,2.5,1.4,4.1c0,3-2.1,5.8-6.3,8.3c-4.3,2.5-8.9,4.4-13.7,5.7c-4.8,1.3-9.5,1.9-14,1.9
			c-13.6,0-24.3-4-32.1-12.1c-7.9-8-11.8-19.1-11.8-33.3c0-9,1.7-16.9,5.2-23.9c3.5-6.9,8.4-12.3,14.7-16.1
			c6.3-3.8,13.5-5.8,21.5-5.8c11.4,0,20.5,3.7,27.2,11.2c6.7,7.4,10.1,17.5,10.1,30.2c0,2.4-0.5,4.1-1.4,5.2c-1,1.1-2.5,1.6-4.7,1.6
			h-58c1.1,20.6,10.9,31,29.3,31c4.7,0,8.7-0.6,12.1-1.9c3.4-1.3,7-3,10.8-5.1c3.1-1.8,5.2-2.7,6.3-2.7
			C1030.4,292.9,1031.6,293.5,1032.5,294.5z M979.2,242c-4.6,4.8-7.4,11.6-8.2,20.3h50.9c-0.2-8.9-2.5-15.7-6.7-20.4
			c-4.2-4.7-10.1-7.1-17.6-7.1C989.9,234.8,983.8,237.2,979.2,242z"/>
		<path d="M1147.3,258.9c4,5.3,6,11.9,6,19.8c0,11.2-3.7,19.7-11,25.6c-7.3,5.9-17.7,8.9-31.1,8.9h-45.4c-2.3,0-4.1-0.7-5.5-2
			c-1.4-1.3-2.1-3.1-2.1-5.2V193.6c0-2.2,0.7-3.9,2.1-5.2c1.4-1.3,3.2-2,5.5-2h43.4c13.1,0,23.2,2.9,30.4,8.6
			c7.2,5.8,10.8,13.9,10.8,24.5c0,6.8-1.8,12.7-5.3,17.6c-3.5,4.9-8.5,8.6-14.8,11C1137.6,250,1143.3,253.6,1147.3,258.9z
			 M1072.9,242.7h34.2c9.5,0,16.6-1.9,21.5-5.8c4.9-3.8,7.3-9.4,7.3-16.7c0-14.4-9.6-21.6-28.8-21.6h-34.2V242.7z M1131.8,295.5
			c4.7-3.7,7.1-9.4,7.1-17.2c0-15.6-9.7-23.4-29.2-23.4h-36.9V301h36.9C1119.7,301,1127.1,299.2,1131.8,295.5z"/>
		<path d="M1191.9,309c-6.3-3.7-11.2-9-14.6-15.9c-3.4-6.9-5.1-14.9-5.1-24c0-9.1,1.7-17.1,5.1-24c3.4-6.9,8.3-12.2,14.6-15.9
			c6.3-3.7,13.6-5.6,21.9-5.6c8.3,0,15.6,1.9,22,5.6c6.4,3.7,11.3,9,14.7,15.9c3.4,6.9,5.1,14.9,5.1,24c0,9.1-1.7,17.1-5.1,24
			c-3.4,6.9-8.3,12.2-14.7,15.9c-6.4,3.7-13.7,5.6-22,5.6C1205.5,314.5,1198.2,312.7,1191.9,309z M1233.7,293.9
			c4.6-5.7,6.9-14,6.9-24.9c0-10.7-2.3-18.9-7-24.8c-4.7-5.8-11.3-8.7-19.8-8.7c-8.5,0-15.1,2.9-19.8,8.7c-4.7,5.8-7,14.1-7,24.8
			c0,10.8,2.3,19.1,6.9,24.8c4.6,5.8,11.3,8.6,19.9,8.6C1222.4,302.5,1229.1,299.6,1233.7,293.9z"/>
		<path d="M1349.7,307.3c0,1.8-0.7,3.4-2,4.7c-1.3,1.3-2.9,2-4.7,2c-1.9,0-3.7-0.8-5.2-2.5l-29.2-33.3l-29,33.3
			c-1.6,1.7-3.3,2.5-5.2,2.5c-1.8,0-3.4-0.7-4.8-2c-1.4-1.3-2.1-2.9-2.1-4.9c0-1.8,0.7-3.5,2.2-5l29.9-33.7l-28.6-32.6
			c-1.4-1.7-2.2-3.4-2.2-5c0-1.9,0.7-3.5,2.1-4.9c1.4-1.3,2.9-2,4.6-2c1.9,0,3.7,0.8,5.2,2.5l27.9,32l27.9-32
			c1.6-1.7,3.3-2.5,5.2-2.5c1.8,0,3.4,0.7,4.7,2c1.3,1.3,2,2.9,2,4.7c0,2-0.7,3.8-2.2,5.2l-28.6,32.6l29.9,33.7
			C1349,303.5,1349.7,305.3,1349.7,307.3z"/>
	</g>
	<g>
		<polygon class="st0" points="450.3,350 250.3,450 50.3,350 50.3,150 250.3,50 450.3,150 		"/>
		<path class="st1" d="M378.9,286.9l0.9,0c4.8,3.6,8.1,9.7,8.1,18.1c0,19.3-15.5,42.8-34.8,52.5s-34.9,1.8-34.9-17.5
			c0-8.3,2.9-17.4,7.8-25.8l-1.6,0l-74.1,36.3V450l200-100v-99.6L378.9,286.9z"/>
		<path class="st1" d="M130.9,287.1c-4.9-8.4-7.8-17.4-7.8-25.6c0-19.2,15.7-27,35-17.4c19.4,9.6,35,32.9,35,52.1
			c0,8.3-2.9,14.4-7.8,17.9l-4.1,0l68.9,36.1V450l-200-99.2v-99.7l76.8,36.1L130.9,287.1z"/>
		<polyline class="st2" points="450.3,150 250.3,250 50.3,150 250.3,250 250.3,450 		"/>
	</g>
</g>
</svg>
